<?xml version="1.0" encoding="UTF-8" standalone="no"?>
<!DOCTYPE svg PUBLIC "-//W3C//DTD SVG 1.1//EN" "http://www.w3.org/Graphics/SVG/1.1/DTD/svg11.dtd">
<svg version="1.1" xmlns="http://www.w3.org/2000/svg" xmlns:xlink="http://www.w3.org/1999/xlink" preserveAspectRatio="xMidYMid meet" width="300" height="300" viewBox="0 0 640 640"><defs><path d="M170.16 162.4L317.61 162.4L317.61 307.95L170.16 307.95L170.16 162.4Z" id="QevDaYjXk7"></path><path d="M220.16 231.51L270.16 231.51L270.16 256.51L220.16 256.51L220.16 231.51Z" id="liot5WORIe"></path><path d="M232.66 185.92L257.66 185.92L257.66 210.92L232.66 210.92L232.66 185.92Z" id="EsqNeP0IhU"></path><path d="M207.66 254.51L282.66 254.51L282.66 279.51L207.66 279.51L207.66 254.51Z" id="jEfsjnijAl"></path><path d="M195.16 278.51L295.16 278.51L295.16 303.51L195.16 303.51L195.16 278.51Z" id="enqAbtjaRI"></path><path d="M170.16 159.4L320.16 159.4L320.16 309.4L170.16 309.4L170.16 159.4Z" id="K7XnsN2qW9"></path></defs><g visibility="visible"><g visibility="visible"><g><use xlink:href="#QevDaYjXk7" opacity="1" fill="#000000" fill-opacity="1"></use><g><use xlink:href="#QevDaYjXk7" opacity="1" fill-opacity="0" stroke="#30a9de" stroke-width="0" stroke-opacity="1"></use></g></g><g><use xlink:href="#liot5WORIe" opacity="1" fill="#e5393f" fill-opacity="1"></use><g><use xlink:href="#liot5WORIe" opacity="1" fill-opacity="0" stroke="#e5393f" stroke-width="0" stroke-opacity="1"></use></g></g><g><use xlink:href="#EsqNeP0IhU" opacity="1" fill="#ffffff" fill-opacity="1"></use><g><use xlink:href="#EsqNeP0IhU" opacity="1" fill-opacity="0" stroke="#ffffff" stroke-width="1" stroke-opacity="1"></use></g></g><g><use xlink:href="#jEfsjnijAl" opacity="1" fill="#e5393f" fill-opacity="1"></use><g><use xlink:href="#jEfsjnijAl" opacity="1" fill-opacity="0" stroke="#e5393f" stroke-width="1" stroke-opacity="1"></use></g></g><g><use xlink:href="#enqAbtjaRI" opacity="1" fill="#e5393f" fill-opacity="1"></use><g><use xlink:href="#enqAbtjaRI" opacity="1" fill-opacity="0" stroke="#e5393f" stroke-width="0" stroke-opacity="1"></use></g></g><g><use xlink:href="#K7XnsN2qW9" opacity="1" fill="#ffffff" fill-opacity="0"></use><g><use xlink:href="#K7XnsN2qW9" opacity="1" fill-opacity="0" stroke="#30a9de" stroke-width="14" stroke-opacity="1"></use></g></g></g></g></svg>